HIERARCHY
ROOT Hips
{
	OFFSET 0.00000 0.00000 0.00000
	CHANNELS 6 Xposition Yposition Zposition Zrotation Yrotation Xrotation 
	JOINT LHipJoint
	{
		OFFSET 0 0 0
		CHANNELS 3 Zrotation Yrotation Xrotation
		JOINT LeftHip
		{
			OFFSET 1.62067 -1.77917 0.70989
			CHANNELS 3 Zrotation Yrotation Xrotation
			JOINT LeftKnee
			{
				OFFSET 2.34532 -6.44371 0.00000
				CHANNELS 3 Zrotation Yrotation Xrotation
				JOINT LeftAnkle
				{
					OFFSET 2.74224 -7.53425 0.00000
					CHANNELS 3 Zrotation Yrotation Xrotation
					JOINT LeftToe
					{
						OFFSET 0.17032 -0.46794 2.08086
						CHANNELS 3 Zrotation Yrotation Xrotation
						End Site
						{
							OFFSET 0.00000 -0.00000 1.07476
						}
					}
				}
			}
		}
	}
	JOINT RHipJoint
	{
		OFFSET 0 0 0
		CHANNELS 3 Zrotation Yrotation Xrotation
		JOINT RightHip
		{
			OFFSET -1.55811 -1.77917 0.70989
			CHANNELS 3 Zrotation Yrotation Xrotation
			JOINT RightKnee
			{
				OFFSET -2.33243 -6.40830 0.00000
				CHANNELS 3 Zrotation Yrotation Xrotation
				JOINT RightAnkle
				{
					OFFSET -2.78798 -7.65993 0.00000
					CHANNELS 3 Zrotation Yrotation Xrotation
					JOINT RightToe
					{
						OFFSET -0.22707 -0.62388 2.04059
						CHANNELS 3 Zrotation Yrotation Xrotation
						End Site
						{
							OFFSET -0.00000 -0.00000 1.07030
						}
					}
				}
			}
		}
	}
	JOINT lowerback
	{
		OFFSET 0 0 0
		CHANNELS 3 Zrotation Yrotation Xrotation
		JOINT Chest
		{
			OFFSET 0.02203 1.91565 0.07161
			CHANNELS 3 Zrotation Yrotation Xrotation
			JOINT Chest2
			{
				OFFSET 0.01740 1.90525 0.11636
				CHANNELS 3 Zrotation Yrotation Xrotation
				JOINT lowerneck
				{
					OFFSET 0 0 0
					CHANNELS 3 Zrotation Yrotation Xrotation
					JOINT Neck
					{
						OFFSET -0.10841 1.83566 0.05067
						CHANNELS 3 Zrotation Yrotation Xrotation
						JOINT Head
						{
							OFFSET 0.06601 1.74760 -0.50505
							CHANNELS 3 Zrotation Yrotation Xrotation
							End Site
							{
								OFFSET 0.03102 1.85215 -0.17697
							}
						}
					}
				}
				JOINT LeftCollar
				{
					OFFSET 0 0 0
					CHANNELS 3 Zrotation Yrotation Xrotation
					JOINT LeftShoulder
					{
						OFFSET 2.87059 1.35470 0.16111
CHANNELS 3 Zrotation Xrotation Yrotation
						JOINT LeftElbow
						{
OFFSET 0 -5.435920 0.000000
CHANNELS 3 Zrotation Xrotation Yrotation
							JOINT LeftWrist
							{
OFFSET 0 -3.254600 0.000000
CHANNELS 3 Zrotation Xrotation Yrotation
								JOINT lhand
								{
									OFFSET 0 0 0
CHANNELS 3 Zrotation Xrotation Yrotation
									JOINT LFingers
									{
OFFSET 0 -0.498240 0.000000
CHANNELS 3 Zrotation Xrotation Yrotation
										End Site
										{
OFFSET 0 -0.401700 0.000000
										}
									}
								}
								JOINT LThumb
								{
OFFSET 0 0.000000 0.000000
CHANNELS 3 Zrotation Xrotation Yrotation
									End Site
									{
OFFSET 0 -0.407830 0.407830
									}
								}
							}
						}
					}
				}
				JOINT RightCollar
				{
					OFFSET 0 0 0
					CHANNELS 3 Zrotation Yrotation Xrotation
					JOINT RightShoulder
					{
						OFFSET -2.86643 1.23488 0.45957
CHANNELS 3 Zrotation Xrotation Yrotation
						JOINT RightElbow
						{
OFFSET 0 -5.338300 0.000000
CHANNELS 3 Zrotation Xrotation Yrotation
							JOINT RightWrist
							{
OFFSET 0 -3.231480 0.000000
CHANNELS 3 Zrotation Xrotation Yrotation
								JOINT rhand
								{
									OFFSET 0 0 0
CHANNELS 3 Zrotation Xrotation Yrotation
									JOINT RFingers
									{
OFFSET 0 -0.463640 0.000000
CHANNELS 3 Zrotation Xrotation Yrotation
										End Site
										{
OFFSET 0 -0.373800 0.000000
										}
									}
								}
								JOINT RThumb
								{
OFFSET 0 0.000000 0.000000
CHANNELS 3 Zrotation Xrotation Yrotation
									End Site
									{
OFFSET 0 -0.379510 0.379510
									}
								}
							}
						}
					}
				}
			}
		}
	}
}
MOTION
Frames: 5
Frame Time: 0.008333333333333333
-4.678500 16.569700 17.552500 -163.988000 -60.227700 177.369000 0.000000 0.000000 0.000000 2.499700 -19.446600 -35.211400 6.215600 14.634100 45.841000 1.892400 -10.560500 -24.732400 1.291600 -7.201000 -20.312300 0.000000 0.000000 0.000000 12.901700 20.073200 -22.246500 -3.933100 -12.070800 35.983000 -0.976600 -11.030000 -25.683700 -0.788700 5.669200 -15.827600 1.038300 5.813600 -6.717000 -4.368900 7.330900 -6.600500 -4.727600 3.421600 -2.393900 -16.014400 -8.183300 -11.298200 15.478300 -15.173300 31.999100 6.508900 -7.339300 15.745300 0.000000 0.000000 0.000000 37.224300 21.154100 21.620800 18.694900 -29.037900 4.881900 47.399400 -53.592200 25.368300 0.000000 0.000000 0.000000 -7.125000 0.000000 0.000000 10.297900 -4.531300 11.256600 0.000000 0.000000 0.000000 -67.205500 -13.715900 2.058500 -44.190100 -50.365500 -21.613200 -44.616000 51.316600 43.338800 0.000000 0.000000 0.000000 7.125000 0.000000 -0.000000 -22.070100 82.434600 19.057200
-4.710199 16.561461 17.557365 -164.039786 -59.110920 177.326629 0.000000 0.000000 0.000000 2.372667 -19.002022 -34.632727 6.248241 14.664623 45.969917 2.031988 -9.140770 -25.594407 1.385051 -7.445259 -21.042095 0.000000 0.000000 0.000000 12.997505 20.198115 -22.142927 -3.909561 -12.039022 35.870247 -1.008613 -10.937726 -25.852790 -0.811298 5.747743 -16.054361 1.722664 5.989360 -6.707114 -4.186392 7.545342 -6.640752 -4.902261 3.511049 -2.360631 -15.808039 -8.257370 -10.987796 15.505370 -15.404926 31.806078 6.430279 -7.435497 15.611362 0.000000 0.000000 0.000000 37.630744 21.587300 22.280448 18.717498 -29.066226 4.892885 47.545343 -53.909195 25.019213 0.000000 0.000000 0.000000 -7.125000 0.000000 0.000000 10.472012 -4.169188 11.391558 0.000000 0.000000 0.000000 -67.152301 -13.771610 2.215742 -43.781773 -50.157099 -21.299344 -44.166244 50.690613 43.413419 0.000000 0.000000 0.000000 7.125000 0.000000 0.000000 -20.175741 82.375281 17.386935
-4.741557 16.557378 17.565816 -164.520242 -58.083803 177.645753 0.000000 0.000000 0.000000 1.968905 -18.694813 -33.978340 6.244163 14.660874 45.954008 2.115956 -8.037106 -26.145244 1.424420 -7.547140 -21.346863 0.000000 0.000000 0.000000 12.849429 20.227846 -22.061500 -3.892967 -12.016580 35.790797 -0.988424 -11.192487 -25.920491 -0.895947 6.028210 -16.867711 2.189676 6.078645 -6.674342 -4.032577 7.651337 -6.652939 -4.995515 3.551995 -2.343245 -15.729483 -8.320567 -10.708987 15.517070 -15.581901 31.650800 6.381261 -7.524009 15.502757 0.000000 0.000000 0.000000 37.918037 22.112667 23.094599 18.766510 -29.127513 4.916679 47.618703 -54.304125 24.766050 0.000000 0.000000 0.000000 -7.125000 0.000000 0.000000 10.579973 -3.891045 11.465205 0.000000 0.000000 0.000000 -67.176980 -13.980797 2.462248 -43.350048 -49.933328 -20.968466 -44.613676 50.718049 43.062557 0.000000 0.000000 0.000000 7.125000 0.000000 0.000000 -22.019346 82.146885 18.887400
-4.771512 16.556779 17.574456 -165.138442 -57.119767 178.036508 0.000000 0.000000 0.000000 1.458193 -18.476235 -33.258502 6.222337 14.640410 45.867704 2.172231 -6.995249 -26.561483 1.462087 -7.641382 -21.630326 0.000000 0.000000 0.000000 12.635284 20.319605 -21.898518 -3.877443 -11.995476 35.716159 -0.947990 -11.597253 -25.967781 -1.010229 6.390798 -17.924095 2.542469 6.124211 -6.584921 -3.879387 7.706572 -6.630123 -5.034153 3.572222 -2.339053 -15.696018 -8.392144 -10.494476 15.452134 -15.739653 31.585327 6.313251 -7.614426 15.443799 0.000000 0.000000 0.000000 38.142878 22.653471 23.933681 18.844308 -29.224663 4.954591 47.716490 -54.751719 24.547335 0.000000 0.000000 0.000000 -7.125000 0.000000 0.000000 10.692462 -3.665160 11.551757 0.000000 0.000000 0.000000 -67.207974 -14.257744 2.673931 -42.943059 -49.719562 -20.657410 -45.466804 51.199364 42.665159 0.000000 0.000000 0.000000 7.125000 0.000000 0.000000 -25.534887 81.981127 21.866100
-4.799722 16.559115 17.583019 -165.702813 -56.205315 178.328611 0.000000 0.000000 0.000000 0.959204 -18.345249 -32.488243 6.192505 14.612248 45.749283 2.218371 -5.845881 -26.960005 1.522791 -7.791627 -22.083174 0.000000 0.000000 0.000000 12.453677 20.561241 -21.621559 -3.860481 -11.972325 35.634249 -0.923539 -11.933573 -26.082093 -1.121488 6.726526 -18.907799 2.859970 6.150409 -6.434212 -3.697842 7.743173 -6.569635 -5.029629 3.586846 -2.339280 -15.694576 -8.478676 -10.355737 15.312361 -15.892450 31.615206 6.221305 -7.709967 15.442010 0.000000 0.000000 0.000000 38.374478 23.196442 24.603817 18.940779 -29.344991 5.001765 47.884583 -55.323634 24.321752 0.000000 0.000000 0.000000 -7.125000 0.000000 0.000000 10.846140 -3.461498 11.687384 0.000000 0.000000 0.000000 -67.240756 -14.548432 2.798165 -42.595292 -49.534417 -20.392405 -46.243487 51.818652 42.499532 0.000000 0.000000 0.000000 7.125000 0.000000 0.000000 -28.760705 82.021425 24.688721
